# xmcd
#
# Track frame offsets: 
#        150
#        18130
#        30022
#        53175
#        68130
#        79180
#        89677
#        97455
#        110527
#        128475
#        145602
#        169122
#        182922
#        195840
#        212647
#        242875
#        259857
#        275027
#
# Disc length: 3939 seconds
#
# Revision: 0
# Processed by: cddbd v1.5.2PL0 Copyright (c) Steve Scherf et al.
# Submitted via: ExactAudioCopyFreeDBPlugin 1.0
#
DISCID=f90f6112
DTITLE=Various Artist - Blues Harp Summit
DYEAR=1900
DGENRE=
TTITLE0=James Harman - Darlin'
TTITLE1=James Harman - Mo' Napkins
TTITLE2=James Harman - I've Got (So Many Womens)
TTITLE3=James Harman - Two Sides To Every Story
TTITLE4=James Harman - Got To Call My Baby
TTITLE5=James Harman - Swamp Night
TTITLE6=James Harman - Snakes
TTITLE7=James Harman - It's Alright Now
TTITLE8=James Harman - I Got News
TTITLE9=James Harman - Night Ridin' Daddy
TTITLE10=James Harman - Three-Way Party
TTITLE11=Rod Piazza and The Mighty Flyers - Sinister Woman
TTITLE12=Rod Piazza and The Mighty Flyers - Love And Money
TTITLE13=Rod Piazza and The Mighty Flyers - Bad, Bad Boy
TTITLE14=Rod Piazza and The Mighty Flyers - Buzzing
TTITLE15=Rod Piazza and The Mighty Flyers - Mellow Down Easy
TTITLE16=Studebaker John and The Hawks - Somewhere In Your Heart
TTITLE17=Studebaker John and The Hawks - Boogie Walk
EXTD=
EXTT0=
EXTT1=
EXTT2=
EXTT3=
EXTT4=
EXTT5=
EXTT6=
EXTT7=
EXTT8=
EXTT9=
EXTT10=
EXTT11=
EXTT12=
EXTT13=
EXTT14=
EXTT15=
EXTT16=
EXTT17=
PLAYORDER=
